<svg width="702" height="299" viewBox="0 0 702 299" fill="none" xmlns="http://www.w3.org/2000/svg">
<path d="M105.282 110.254C88.5248 127.011 66.6989 138.7 39.1497 144.63C30.5527 146.473 23.0713 138.482 25.3508 129.994L57.8351 8.76314C59.5206 2.45787 66.0077 -1.28891 72.313 0.408658L135.984 17.4571C142.023 19.0698 145.794 25.1326 144.508 31.2439C137.694 63.8615 124.974 90.5619 105.282 110.254Z" fill="#1F1F1F"/>
<path d="M130.346 270.177L8.76314 237.608C2.45787 235.923 -1.28891 229.435 0.408658 223.13L17.5056 159.289C19.0941 153.348 24.9871 149.577 31.0256 150.717C90.6468 161.848 128.442 196.927 144.787 255.53C147.249 264.381 139.234 272.578 130.358 270.201L130.346 270.177Z" fill="#1F1F1F"/>
<path d="M190.755 186.766C207.816 169.705 229.605 158.695 255.481 152.948C264.163 151.02 271.814 158.95 269.51 167.547L237.584 286.668C235.898 292.973 229.411 296.72 223.106 295.022L161.169 278.423C155.13 276.81 151.432 270.771 152.645 264.648C159.289 230.878 172.252 205.257 190.755 186.754V186.766Z" fill="#1F1F1F"/>
<path d="M295.035 72.313L277.537 137.597C275.925 143.635 269.874 147.406 263.763 146.121C204.651 133.668 165.704 99.7773 151.517 39.5862C149.468 30.9165 157.507 23.2289 166.104 25.5327L286.668 57.8351C292.973 59.5206 296.72 66.0077 295.022 72.313H295.035Z" fill="#1F1F1F"/>
<path d="M147.043 71.5733C147.043 71.5733 165.57 106.058 179.115 119.166C191.507 131.17 206.348 140.895 223.53 148.291C207.027 155.264 192.732 164.77 180.751 176.762C168.82 188.694 159.01 203.269 151.602 220.075C150.777 221.942 149.989 223.833 149.225 225.761C140.931 206.785 129.958 190.61 116.365 177.393C104.082 165.437 89.604 155.846 73.0526 148.655C89.2523 141.659 103.379 132.177 115.298 120.257C127.217 108.338 146.594 72.6768 147.055 71.5733" fill="#1F1F1F"/>
<path d="M392.127 125.379H381.234L361.299 56.531H369.417L383.084 104.005L386.681 118.083H387.297L391.408 104.005L407.438 56.531H417.714L435.388 104.005L440.012 118.083H440.526L443.712 104.005L455.734 56.531H463.75L445.972 125.379H435.08L418.33 80.5765L412.884 64.5462H412.165L407.335 80.5765L392.127 125.379ZM520.912 125.379H468.607V56.531H520.912V63.2103H475.903V87.4613H519.37V94.0379H475.903V118.7H520.912V125.379ZM564.419 125.379H527.221V56.531H563.392C575.723 56.531 583.841 62.6965 583.841 73.5889C583.841 81.5013 579.422 87.4613 569.968 88.9V89.5165C580.552 91.2634 585.999 97.5317 585.999 106.369C585.999 118.289 577.572 125.379 564.419 125.379ZM534.517 63.2103V86.5365H562.159C571.51 86.5365 576.545 82.8372 576.545 74.9248C576.545 66.9096 572.126 63.2103 562.775 63.2103H534.517ZM534.517 92.8048V118.7H563.803C573.565 118.7 578.6 114.692 578.6 105.65C578.6 96.8124 573.359 92.8048 563.803 92.8048H534.517ZM618.718 126.407C597.961 126.407 589.124 116.439 589.124 103.492V101.848H596.728V103.183C596.728 113.973 601.969 119.419 618.513 119.419C633.927 119.419 640.092 115.206 640.092 105.444C640.092 96.7096 634.03 92.5993 623.548 92.5993H604.949V86.331H622.007C632.385 86.331 638.037 82.5289 638.037 74.7193C638.037 66.4986 633.002 62.491 618.205 62.491C602.483 62.491 596.728 67.9372 596.728 78.7269V79.6517H589.124V78.4186C589.124 65.6765 598.27 55.5034 618.718 55.5034C635.571 55.5034 645.333 62.1827 645.333 73.5889C645.333 81.2958 640.812 87.0503 632.18 88.5917V89.311C641.942 91.1607 647.491 97.1207 647.491 106.266C647.491 119.111 636.496 126.407 618.718 126.407ZM373.117 207.379H365.821V138.531H373.836L409.904 185.286L418.228 196.795H418.844L418.639 185.492V138.531H425.934V207.379H417.919L382.057 161.138L373.425 149.526H372.911L373.117 161.035V207.379ZM467.254 208.407C446.805 208.407 432.521 194.432 432.521 172.955C432.521 151.479 446.805 137.503 467.254 137.503C487.908 137.503 502.192 151.479 502.192 172.955C502.192 194.432 487.908 208.407 467.254 208.407ZM467.254 201.317C484.723 201.317 494.485 191.657 494.485 172.955C494.485 154.253 484.723 144.594 467.254 144.594C449.888 144.594 440.228 154.253 440.228 172.955C440.228 191.657 449.888 201.317 467.254 201.317ZM516.172 207.379H508.876V138.531H542.581C556.967 138.531 566.729 145.827 566.729 158.466C566.729 170.078 558.2 177.271 545.458 177.579V178.093C549.979 179.326 552.548 182.306 554.912 186.314L567.859 207.379H559.433L547.205 187.444C543.711 181.69 540.115 179.223 530.969 179.223H516.172V207.379ZM516.172 145.21V173.366H542.478C553.37 173.366 559.125 169.05 559.125 159.288C559.125 149.526 553.37 145.21 542.478 145.21H516.172ZM603.851 207.379H596.555V145.21H568.193V138.531H632.109V145.21H603.851V207.379ZM643.572 207.379H636.277V138.531H643.572V169.359H687.861V138.531H695.157V207.379H687.861V176.038H643.572V207.379ZM397.573 290.407C377.432 290.407 363.252 276.432 363.252 254.955C363.252 233.479 377.432 219.503 397.573 219.503C415.35 219.503 428.812 229.471 428.812 245.09V246.323H420.899V245.09C420.899 233.376 412.781 226.594 397.676 226.594C380.515 226.594 370.959 236.253 370.959 254.955C370.959 273.657 380.515 283.317 397.676 283.317C412.781 283.317 420.899 276.534 420.899 264.82V263.587H428.812V264.82C428.812 280.439 415.453 290.407 397.573 290.407ZM467.655 290.407C447.206 290.407 432.923 276.432 432.923 254.955C432.923 233.479 447.206 219.503 467.655 219.503C488.31 219.503 502.593 233.479 502.593 254.955C502.593 276.432 488.31 290.407 467.655 290.407ZM467.655 283.317C485.124 283.317 494.886 273.657 494.886 254.955C494.886 236.253 485.124 226.594 467.655 226.594C450.289 226.594 440.63 236.253 440.63 254.955C440.63 273.657 450.289 283.317 467.655 283.317ZM516.573 289.379H509.277V220.531H517.292L553.361 267.286L561.684 278.795H562.301L562.095 267.492V220.531H569.391V289.379H561.376L525.513 243.138L516.881 231.526H516.368L516.573 243.035V289.379ZM585.843 289.379H578.547V220.531H630.132V227.21H585.843V253.517H628.591V260.093H585.843V289.379ZM642.738 289.379H633.696V275.096H642.738V289.379Z" fill="#1F1F1F"/>
</svg>
