<svg width="2202" height="2196" viewBox="0 0 2202 2196" fill="none" xmlns="http://www.w3.org/2000/svg">
<path d="M701.541 1044.7C675.551 1211.8 599.38 1369 466.394 1514.8C424.865 1560.26 348.668 1542.61 326.285 1482.86L6.16888 629.821C-10.5038 585.47 10.9979 537.122 54.1874 521.964L489.926 368.34C531.234 353.746 578.136 374.774 596.29 416.364C693.444 638.158 732.083 848.348 701.541 1044.7Z" fill="#1F1F1F"/>
<path d="M1512.7 1897.72L680.574 2190.98C637.435 2206.21 588.9 2182.56 572.296 2138.16L403.667 1688.98C387.958 1647.19 405.956 1601.08 445.29 1583.66C833.136 1411 1195.99 1468.62 1534.23 1752.49C1585.28 1795.39 1573.61 1876.4 1512.87 1897.81L1512.7 1897.72Z" fill="#1F1F1F"/>
<path d="M1510.36 1158.21C1536.82 988.087 1615.62 835.084 1739.78 697.075C1781.44 650.772 1858.36 667.378 1881.06 727.872L2195.56 1566.1C2212.23 1610.45 2190.73 1658.8 2147.54 1673.95L1723.6 1823.3C1682.3 1837.9 1635.91 1816.72 1617.29 1775.35C1514.35 1547.37 1481.61 1342.64 1510.31 1158.13L1510.36 1158.21Z" fill="#1F1F1F"/>
<path d="M1629.62 57.7351L1801.98 517.121C1817.96 559.589 1799.06 606.331 1758.7 623.17C1368.25 785.915 1003.76 739.998 671.247 438.004C623.32 394.529 637.256 316.463 696.099 295.732L1521.27 4.95847C1564.41 -10.2717 1612.95 13.3844 1629.55 57.7837L1629.62 57.7351Z" fill="#1F1F1F"/>
<path d="M779.168 646.657C779.168 646.657 1029.22 777.982 1161.49 801.831C1282.56 823.72 1408.14 822.197 1537.4 797.411C1472.02 905.144 1429.85 1019.14 1411.32 1138.67C1392.81 1257.64 1397.49 1383.87 1425.23 1513.77C1428.31 1528.21 1431.69 1542.65 1435.37 1557.21C1308.66 1477.32 1178.3 1424.87 1045.29 1400.57C925.046 1378.53 802.108 1379.39 677.321 1402.88C740.867 1296.21 782.165 1183.05 800.651 1064.19C819.138 945.339 781.206 655.034 779.237 646.608" fill="#1F1F1F"/>
</svg>
