<?xml version="1.0" encoding="UTF-8"?>
<svg id="Layer_1" data-name="Layer 1" xmlns="http://www.w3.org/2000/svg" viewBox="0 0 273.61 116.1">
  <defs>
    <style>
      .cls-1 {
        fill: #fff;
      }
    </style>
  </defs>
  <path class="cls-1" d="m28.64,0c-.17.07-.34.14-.41.17,3.13.82,6.34,1.66,9.54,2.51,5.12,1.36,10.23,2.79,15.37,4.09,2.41.61,4.34,2.85,3.65,5.88-1.4,6.12-3.25,12.08-6.11,17.7-3.42,6.7-7.96,12.48-14,17.04-4.63,3.5-9.75,6.05-15.28,7.78-2.03.63-4.09,1.2-6.17,1.59-3.28.62-5.99-2.25-5.23-5.5.66-2.8,1.47-5.56,2.21-8.34,2.45-9.13,4.91-18.27,7.36-27.4,1.06-3.96,2.12-7.92,3.18-11.88.4-1.48,1.28-2.56,2.67-3.21.32-.15.68-.2,1.05-.3-.02-.03-.05-.09-.09-.15.75,0,1.51,0,2.26,0Z"/>
  <path class="cls-1" d="m0,87.52c.07.24.15.49.18.59,1.43-6.02,3.19-12.07,4.8-18.15.63-2.4,1.26-4.8,1.93-7.2.58-2.11,2.07-3.39,4.14-3.56.54-.04,1.11.05,1.66.15,4.14.8,8.2,1.91,12.11,3.47,4.88,1.95,9.41,4.51,13.53,7.79,5.16,4.11,9.27,9.1,12.5,14.81,2.71,4.8,4.8,9.88,6.15,15.23.85,3.38-2.35,6.36-5.72,5.45-5.8-1.57-11.6-3.1-17.41-4.65-5.58-1.49-11.16-3-16.74-4.5-4.46-1.19-8.92-2.37-13.38-3.55-1.37-.36-2.47-1.08-3.12-2.35-.25-.49-.26-1.11-.36-1.58-.05.12-.17.35-.28.59,0-.85,0-1.7,0-2.55Z"/>
  <path class="cls-1" d="m116.29,27.25c-.11.56-.2,1.12-.34,1.67-1.59,5.97-3.19,11.93-4.79,17.9-.64,2.4-1.27,4.8-1.94,7.19-.7,2.52-3.05,3.85-5.6,3.3-4.51-.97-8.9-2.3-13.16-4.07-5.04-2.1-9.65-4.91-13.82-8.44-7.45-6.32-12.27-14.34-15.3-23.52-.63-1.91-1.17-3.85-1.63-5.8-.63-2.65,1.32-5.34,4.01-5.56.7-.06,1.44.08,2.13.26,5.32,1.4,10.63,2.83,15.94,4.25,3.82,1.03,7.65,2.06,11.47,3.09,6.45,1.73,12.9,3.44,19.35,5.17,2.26.61,3.64,2.35,3.69,4.55Z"/>
  <path class="cls-1" d="m88.99,116.1c-.7-.16-1.4-.3-2.1-.48-6.37-1.7-12.74-3.41-19.11-5.11-1.34-.36-2.69-.73-4.03-1.08-2.72-.71-4.14-2.97-3.58-5.7,1.23-5.94,2.99-11.71,5.67-17.17,3.79-7.73,9.16-14.1,16.35-18.9,4.71-3.14,9.87-5.24,15.3-6.74,1.1-.3,2.22-.59,3.34-.81,3.15-.63,6.1,2.46,5.28,5.57-1.01,3.86-2.08,7.7-3.12,11.54-2.32,8.63-4.64,17.26-6.96,25.89-.82,3.05-1.64,6.09-2.45,9.14-.51,1.94-1.65,3.23-3.65,3.69-.3.07-.62.07-.92.11,0,.02-.01.04-.02.05Z"/>
  <path class="cls-1" d="m28.9,58.42c.92-.45,1.72-.84,2.53-1.23,4.5-2.15,8.56-4.93,12.28-8.24,2.85-2.55,5.12-5.56,7.11-8.79,2.39-3.87,4.66-7.81,6.98-11.72.01-.02.05-.03.13-.08.28.49.56.98.84,1.47,2.23,3.93,4.59,7.77,7.15,11.5,2.87,4.19,6.48,7.62,10.59,10.56,3.23,2.31,6.65,4.3,10.3,5.9.31.13.6.3,1,.51-14.05,6-23.44,16.31-29.07,30.29-6.08-13.84-15.84-24.01-29.84-30.16Z"/>
  <path class="cls-1" d="m173.37,46.51c.06-.15.13-.3.17-.46,1.92-7.75,3.85-15.51,5.76-23.26.11-.43.27-.6.72-.58.8.04,1.6.01,2.46.01-.1.43-.19.79-.28,1.15-2.18,8.42-4.36,16.83-6.52,25.25-.13.49-.34.65-.84.63-1.05-.04-2.1,0-3.15-.03-.17,0-.44-.17-.5-.32-1.83-4.84-3.67-9.69-5.45-14.55-1-2.71-1.92-5.46-2.87-8.19-.11-.31-.25-.62-.37-.93-.05,0-.11,0-.16,0-.09.19-.2.38-.26.59-.65,2.09-1.24,4.2-1.93,6.28-1.87,5.59-3.8,11.17-5.69,16.76-.1.31-.25.39-.56.39-1.03-.02-2.07-.05-3.1,0-.54.02-.75-.19-.89-.67-.68-2.41-1.38-4.81-2.07-7.21-1.81-6.23-3.63-12.45-5.44-18.68-.04-.12-.06-.24-.11-.46.57,0,1.08,0,1.6,0q1.48,0,1.89,1.43c1.67,5.79,3.35,11.58,5,17.38.46,1.6.83,3.23,1.25,4.84.06.25.16.48.38.74.11-.31.23-.61.32-.93,1.34-4.9,3.06-9.69,4.69-14.5.97-2.85,1.91-5.7,2.85-8.56.09-.27.19-.41.5-.41,1.1.02,2.2,0,3.3.02.16,0,.4.14.45.27.96,2.55,1.89,5.12,2.84,7.68,1.4,3.78,2.83,7.56,4.21,11.35.54,1.49.98,3.01,1.47,4.52.05.15.12.29.19.44.05,0,.1.01.15.02Z"/>
  <path class="cls-1" d="m224.32,35.15c.24.07.47.16.71.21,1.85.38,3.44,1.21,4.52,2.79,1.39,2.04,1.35,4.27.55,6.48-.93,2.58-2.98,3.85-5.56,4.36-.83.16-1.69.25-2.54.25-4.59.03-9.18.02-13.77.03-.69,0-.68,0-.68-.67,0-8.61,0-17.22-.02-25.83,0-.46.12-.58.58-.58,4.36.02,8.72.02,13.08.03,1.68,0,3.33.19,4.9.86,4,1.72,5.01,7.29,1.83,10.25-.83.78-1.86,1.21-2.96,1.45-.22.05-.43.12-.64.18v.2Zm-13.9,1.31c-.01.21-.03.37-.03.53,0,3.03.02,6.06,0,9.09,0,.47.17.59.59.59,3.64,0,7.28,0,10.92,0,1.34,0,2.67-.09,3.83-.85.48-.31.98-.7,1.27-1.17.9-1.43.96-3.03.63-4.65-.32-1.54-1.21-2.67-2.76-3.08-.94-.25-1.93-.44-2.89-.45-3.72-.05-7.45-.02-11.17-.01-.11,0-.23.01-.4.03Zm6.24-11.63s0,.01,0,.02c-1.95,0-3.9,0-5.85,0-.3,0-.44.05-.43.41.02,2.68.02,5.37.02,8.05,0,.67,0,.68.67.69,3.56.01,7.12.02,10.67.02.47,0,.95-.03,1.42-.12,1.63-.3,3.05-.97,3.54-2.69.24-.84.28-1.79.19-2.66-.17-1.66-1.09-3.08-3.07-3.48-.54-.11-1.1-.2-1.65-.21-1.84-.03-3.67,0-5.51,0Z"/>
  <path class="cls-1" d="m221.3,109.63v-22.97c.86,0,1.72,0,2.58.01.08,0,.2.19.22.31.03.32.03.65.03.98,0,8.38,0,16.76.02,25.14,0,.48-.15.64-.62.61-.65-.04-1.31-.05-1.97-.02-.39.01-.63-.13-.86-.43-2.83-3.67-5.69-7.32-8.52-10.98-2.85-3.69-5.68-7.4-8.52-11.11-.08-.11-.18-.2-.38-.42-.02.33-.05.52-.05.7.04,2.09.11,4.19.12,6.28.02,5.04.01,10.08.01,15.12,0,.1-.02.2,0,.29.04.44-.11.59-.59.55-.6-.06-1.21-.01-1.82,0-.34,0-.49-.1-.49-.48,0-8.71,0-17.42,0-26.12,0-.33.09-.48.44-.47.74.02,1.48-.02,2.21.04.27.02.61.19.78.4,4.39,5.65,8.77,11.31,13.13,16.99,1.27,1.65,2.47,3.35,3.7,5.02.15.2.32.39.47.59l.11-.05Z"/>
  <path class="cls-1" d="m164.86,77.49v-23.05c.84,0,1.68-.01,2.51.02.1,0,.27.22.28.34.04.44.03.88.03,1.32,0,8.22,0,16.43,0,24.65q0,.72-.74.72c-.61,0-1.21-.03-1.82,0-.4.01-.67-.13-.92-.44-2.6-3.37-5.22-6.72-7.82-10.1-3.02-3.92-6.02-7.84-9.03-11.77-.14-.18-.29-.34-.51-.6-.02.29-.04.46-.03.63.01,7.05.03,14.11.04,21.16q0,1.12-1.11,1.12c-.39,0-.79-.01-1.18.03-.42.04-.52-.12-.52-.52.01-4.01,0-8.02,0-12.03,0-4.65,0-9.3-.01-13.94,0-.49.14-.61.61-.58.67.04,1.35-.02,2.02.02.23.01.53.13.66.3,5.07,6.57,10.13,13.15,15.19,19.73.57.74,1.08,1.52,1.64,2.27.19.25.43.45.71.74Z"/>
  <path class="cls-1" d="m214.63,69.96c.19.08.38.16.57.23,1.12.45,2.01,1.18,2.64,2.19,1.78,2.84,3.54,5.7,5.3,8.55.08.14.14.29.25.51-.77,0-1.48-.05-2.19.01-.71.07-1.1-.22-1.45-.8-1.46-2.44-2.98-4.85-4.45-7.29-1.15-1.9-2.84-2.88-5.02-2.94-2.26-.06-4.52-.01-6.78-.02-.3,0-.34.15-.34.4,0,3.36,0,6.71,0,10.07,0,.19,0,.38,0,.62-.87,0-1.68,0-2.48,0-.41,0-.33-.27-.33-.51,0-3.36,0-6.71,0-10.07,0-5.32,0-10.64-.01-15.96,0-.42.08-.56.54-.55,4.16.02,8.33,0,12.49.02,1.56,0,3.1.19,4.58.73,3,1.1,4.76,3.16,5.09,6.4.27,2.7-.98,5.59-3.6,6.99-1.31.7-2.71,1.04-4.18,1.17-.21.02-.41.06-.62.09,0,.05,0,.09-.01.14Zm-5.34-1.85s0,.03,0,.04c1.46,0,2.92.05,4.38-.02.99-.04,2-.14,2.96-.39,1.75-.45,2.93-1.57,3.31-3.39.25-1.21.23-2.44-.08-3.65-.43-1.71-1.49-2.81-3.18-3.27-.74-.2-1.51-.36-2.27-.37-3.62-.03-7.24,0-10.87-.01-.3,0-.39.11-.39.41,0,3.37.01,6.74,0,10.11,0,.45.19.54.59.54,1.85-.02,3.71,0,5.56,0Z"/>
  <path class="cls-1" d="m170.26,68.42c.09-2.84.47-5.18,1.58-7.36,1.76-3.42,4.53-5.58,8.24-6.52,3.27-.83,6.51-.64,9.64.62,3.61,1.45,5.99,4.14,7.16,7.81,1.09,3.42,1.1,6.91-.12,10.32-1.61,4.52-4.87,7.23-9.54,8.22-3.38.72-6.69.42-9.82-1.11-3.76-1.84-5.86-4.96-6.74-8.96-.25-1.13-.31-2.3-.41-3.02Zm13.71-11.67c-.85.07-1.7.1-2.54.23-4,.61-6.61,2.83-7.66,6.76-.75,2.84-.72,5.7.02,8.54.71,2.74,2.28,4.84,4.97,5.88,3.1,1.2,6.28,1.34,9.49.34,2.93-.91,4.85-2.85,5.75-5.76.91-2.93.91-5.91.2-8.87-.6-2.51-1.99-4.51-4.3-5.77-1.84-1.01-3.86-1.31-5.94-1.35Z"/>
  <path class="cls-1" d="m184.15,114.15c-2.51-.1-4.9-.56-7.09-1.79-2.95-1.66-4.92-4.13-5.89-7.36-1.03-3.43-1-6.89.23-10.26,1.68-4.59,5.05-7.23,9.8-8.18,3.23-.64,6.39-.27,9.35,1.12,3.16,1.48,5.32,3.96,6.4,7.27,1.43,4.36,1.23,8.65-1.03,12.71-1.87,3.36-4.82,5.32-8.57,6.07-1.05.21-2.14.28-3.21.42Zm-.04-25.18c-.86.07-1.74.1-2.59.23-3.76.58-6.34,2.65-7.46,6.3-.93,3.04-.91,6.14-.05,9.2.81,2.91,2.64,4.97,5.55,5.95,2.66.9,5.39.95,8.09.3,3.09-.74,5.33-2.6,6.38-5.62,1.17-3.39,1.17-6.85.02-10.26-.77-2.28-2.28-3.96-4.49-5.01-1.73-.82-3.57-1.03-5.45-1.1Z"/>
  <path class="cls-1" d="m187.36,24.77c0,.32,0,.5,0,.67,0,2.8,0,5.6-.01,8.4,0,.43.1.55.54.55,5.33-.01,10.66,0,15.99,0,.45,0,.57.14.55.56-.03.49-.03.98,0,1.47.03.43-.14.52-.54.51-2.53-.01-5.05,0-7.58,0-2.79,0-5.58,0-8.36,0-.18,0-.35,0-.58,0,0,.22,0,.4,0,.57,0,2.95-.01,5.89-.04,8.84,0,.29.12.33.35.33.57,0,1.15,0,1.72,0,5.02,0,10.04,0,15.05,0,.19,0,.38.03.62.05,0,.72-.01,1.41,0,2.09,0,.35-.14.46-.47.45-.69-.01-1.38,0-2.07,0-5.77,0-11.54,0-17.32,0-.76,0-.76,0-.76-.75,0-8.53,0-17.06,0-25.58,0-.73,0-.72.74-.72,6.41,0,12.82,0,19.24-.01.51,0,.66.15.63.64-.03.51-.02,1.02,0,1.52.02.37-.14.49-.49.48-1.03-.03-2.07-.06-3.1-.06-3.8,0-7.61,0-11.41,0-.88,0-1.76,0-2.72,0Z"/>
  <path class="cls-1" d="m248.75,35.04c.25.08.5.17.76.23,2.58.67,4.48,2.09,5.14,4.78.8,3.27-.64,6.37-3.62,7.99-1.8.98-3.75,1.36-5.75,1.53-2.38.2-4.76.06-7.05-.67-2.84-.9-5.02-2.57-5.88-5.54-.3-1.04-.4-2.14-.6-3.29,1.08,0,2.01-.01,2.93.02.08,0,.2.25.22.39.11.86.12,1.73.31,2.57.29,1.3,1.13,2.22,2.32,2.83,1.25.64,2.59.92,3.97.99,2.08.12,4.16.13,6.22-.3,1.01-.21,1.93-.64,2.74-1.27,1.02-.8,1.46-1.91,1.52-3.17.08-1.82-.23-3.51-1.84-4.66-1.02-.73-2.22-.99-3.44-1.02-2.46-.05-4.92-.03-7.38-.03-.36,0-.72,0-1.11,0v-2.48c.78,0,1.56,0,2.34,0,1.74,0,3.48.04,5.21-.06.95-.05,1.92-.24,2.82-.55,2.2-.77,2.81-2.58,2.54-4.63-.04-.31-.12-.61-.19-.91-.36-1.57-1.49-2.34-2.93-2.71-.88-.23-1.8-.4-2.7-.45-2.09-.13-4.2-.18-6.25.41-2.68.77-3.98,2.4-4.13,5.17-.06,1.07-.06,1.08-1.14,1.1-.51,0-1.02,0-1.52-.03-.12,0-.32-.19-.32-.28.06-1.46.27-2.89.99-4.2,1.13-2.04,2.85-3.38,5.03-4.06,3.83-1.21,7.69-1.23,11.49.1,2.24.79,3.87,2.27,4.39,4.69.62,2.88-.44,6.14-4.43,7.18-.22.06-.43.13-.64.19l-.02.18Z"/>
  <path class="cls-1" d="m273.58,81.5c-.86,0-1.66,0-2.46,0-.28,0-.33-.13-.33-.37,0-.72,0-1.44,0-2.16,0-3.19,0-6.38,0-9.58,0-.06-.02-.12-.04-.23-.18,0-.35-.02-.53-.02-5.44,0-10.89,0-16.33-.01-.53,0-.61.18-.6.65.03,3.65.04,7.3.05,10.95,0,.16.03.34-.03.49-.04.11-.2.25-.31.26-.69.02-1.38,0-2.06.02-.38,0-.5-.13-.5-.52.01-7.66.01-15.32.01-22.98,0-1.01,0-2.03-.03-3.04-.01-.42.13-.54.53-.53.61.03,1.21.04,1.82,0,.42-.02.54.12.53.53,0,2.98,0,5.96.01,8.94,0,.7.04,1.41,0,2.11-.03.51.23.54.63.54,4.41,0,8.82,0,13.24,0,1.05,0,2.1,0,3.15.01.29,0,.43-.09.43-.39,0-.23.01-.46.01-.69,0-3.5,0-7.01,0-10.51,0-.42.09-.58.54-.55.64.04,1.28.02,1.92,0,.25,0,.36.09.36.34,0,.39,0,.79,0,1.18,0,8.37,0,16.73,0,25.1,0,.13-.01.26-.03.47Z"/>
  <path class="cls-1" d="m165.7,103.61c.96,0,1.86,0,2.76,0,.31,0,.3.22.31.45,0,2.38-.77,4.46-2.38,6.21-1.82,1.98-4.15,3.05-6.76,3.51-3.17.56-6.27.36-9.23-1.01-2.98-1.38-5.1-3.62-6.25-6.67-1.76-4.66-1.57-9.25.88-13.63,1.73-3.1,4.47-4.96,7.9-5.75,3.98-.92,7.81-.52,11.33,1.62,2.95,1.8,4.48,4.51,4.53,8,0,.39-.1.51-.51.48-.64-.04-1.28,0-1.92,0-.65,0-.65,0-.64-.63.02-2.13-.67-3.96-2.37-5.31-1.15-.91-2.49-1.42-3.95-1.64-2.31-.35-4.6-.36-6.87.31-3.04.89-4.99,2.9-5.87,5.88-.97,3.29-.97,6.64.14,9.9,1.11,3.26,3.5,5.13,6.87,5.75,2.08.39,4.18.4,6.25-.1,1.32-.32,2.6-.81,3.67-1.7,1.56-1.31,2.09-3.07,2.13-5.03,0-.2,0-.39,0-.64Z"/>
  <path class="cls-1" d="m230.67,89.21c0,.88,0,1.61,0,2.35,0,2.5,0,5.01-.02,7.51,0,.44.12.54.55.54,5.23-.01,10.46,0,15.7,0,.41,0,.55.12.53.53-.03.52-.02,1.05,0,1.57.02.36-.11.48-.48.48-1.69-.01-3.38,0-5.07,0-3.64,0-7.28,0-10.92,0-.08,0-.16.01-.27.02-.01.14-.04.26-.04.39,0,3.49,0,6.97,0,10.46,0,.64,0,.64-.67.64-.57,0-1.15,0-1.72.02-.41.02-.56-.11-.56-.56.02-7.74.02-15.49.02-23.23,0-.95,0-1.9-.02-2.85,0-.34.11-.45.45-.45,6.45.01,12.89.02,19.34,0,.42,0,.55.13.53.52-.02.54-.03,1.08,0,1.62.02.37-.13.49-.49.49-1.11-.03-2.23-.05-3.34-.05-3.43,0-6.86,0-10.28,0-1.06,0-2.12,0-3.25,0Z"/>
  <path class="cls-1" d="m237.75,57.09c0,.23,0,.4,0,.58,0,7.69,0,15.39,0,23.08,0,.74,0,.74-.72.74-.56,0-1.12,0-1.67.02-.42.02-.55-.12-.55-.56.02-7.27.02-14.54.02-21.8,0-.56-.02-1.11,0-1.67,0-.3-.1-.4-.4-.4-3.34,0-6.69-.02-10.03-.03-.69,0-.69.02-.69-.64,0-.52,0-1.05-.01-1.57,0-.3.11-.41.4-.41.64.02,1.28.02,1.92.02,7.43,0,14.86,0,22.29-.01.42,0,.55.12.53.52-.02.54-.03,1.08,0,1.62.01.36-.12.5-.48.49-1.16-.03-2.33-.06-3.49-.05-2.26,0-4.52.04-6.79.07-.08,0-.16.01-.31.02Z"/>
  <path class="cls-1" d="m249.55,108.07c1.05,0,2.11,0,3.17.02.1,0,.28.22.28.34.02,1.65.02,3.3,0,4.95,0,.11-.22.31-.34.32-.9.03-1.8.01-2.7.02-.28,0-.47-.06-.47-.41,0-1.68,0-3.37,0-5.05,0-.04.03-.09.07-.19Z"/>
</svg>